<?xml version="1.0" standalone="no"?>
<!DOCTYPE svg PUBLIC "-//W3C//DTD SVG 20010904//EN"
 "http://www.w3.org/TR/2001/REC-SVG-20010904/DTD/svg10.dtd">
<svg version="1.0" xmlns="http://www.w3.org/2000/svg"
 width="712.000000pt" height="712.000000pt" viewBox="0 0 712.000000 712.000000"
 preserveAspectRatio="xMidYMid meet">
<metadata>
Created by potrace 1.14, written by Peter Selinger 2001-2017
</metadata>
<g transform="translate(0.000000,712.000000) scale(0.100000,-0.100000)"
fill="#000000" stroke="none">
<path d="M1640 6757 c-134 -110 -278 -227 -740 -600 -162 -132 -304 -246 -315
-256 -11 -9 -125 -101 -252 -205 l-233 -188 0 -1825 0 -1824 38 5 c20 3 61 8
90 11 113 11 149 15 187 19 22 3 65 8 95 11 30 3 71 8 90 10 19 2 64 7 100 10
36 3 72 8 80 10 8 2 51 7 95 10 79 7 95 8 185 20 25 3 70 8 100 10 30 3 91 10
135 15 44 5 109 12 145 15 68 6 122 12 180 20 19 3 64 7 100 10 36 3 76 8 90
10 14 2 54 6 90 10 64 6 76 7 195 21 62 7 68 7 175 18 36 3 81 8 100 10 19 3
60 7 90 11 30 3 71 8 90 10 47 5 159 17 190 20 54 5 156 17 180 20 14 2 59 6
100 10 41 3 82 8 90 10 8 2 49 7 90 10 41 4 86 8 100 10 14 2 54 6 90 10 36 4
76 8 90 10 14 2 54 6 90 10 36 4 76 8 90 10 42 6 193 19 220 18 20 0 255 -34
402 -59 15 -2 85 -13 155 -23 215 -33 337 -51 363 -56 14 -2 75 -11 135 -20
61 -9 121 -18 135 -20 22 -4 65 -10 205 -30 22 -3 49 -7 60 -10 11 -2 43 -7
70 -11 28 -3 53 -8 58 -11 4 -2 7 -150 7 -329 l0 -324 40 0 40 0 0 320 0 321
43 -6 c23 -3 83 -12 132 -20 50 -8 110 -17 135 -20 25 -3 86 -12 135 -20 50
-8 108 -17 130 -20 23 -3 52 -7 65 -10 14 -3 88 -14 165 -25 77 -12 151 -23
165 -25 14 -2 45 -7 70 -10 25 -3 52 -8 60 -10 8 -2 35 -7 60 -10 25 -3 90
-13 145 -21 55 -8 118 -18 140 -21 22 -3 59 -8 83 -13 l42 -7 -2 1499 -3 1499
-495 251 c-272 138 -497 252 -499 254 -2 2 -4 175 -3 384 l1 380 -40 0 -39 0
0 -62 c-1 -35 -1 -197 -1 -360 0 -164 -2 -298 -5 -298 -2 0 -112 55 -244 121
l-240 121 0 597 0 597 -40 1 -40 1 0 -574 c0 -316 -3 -574 -6 -574 -6 0 -915
458 -1464 737 l-165 84 -335 70 c-184 39 -344 72 -355 74 -68 14 -544 113
-725 151 -118 25 -230 47 -249 50 -19 2 -37 6 -41 9 -4 2 -20 6 -36 9 -16 3
-95 19 -176 36 -81 16 -149 30 -150 30 -2 0 -59 -47 -128 -103z m230 3 c19 -6
49 -13 65 -16 29 -5 206 -41 411 -83 121 -26 140 -30 179 -37 17 -3 48 -9 70
-15 22 -5 51 -11 65 -14 14 -2 99 -19 190 -39 91 -19 244 -51 340 -71 96 -20
218 -45 270 -56 52 -11 104 -22 115 -25 11 -2 61 -11 110 -21 50 -9 94 -21
100 -25 10 -9 15 -4017 5 -4019 -3 0 -14 -2 -25 -4 -11 -2 -45 -6 -75 -9 -65
-6 -240 -25 -290 -31 -19 -2 -66 -7 -105 -10 -38 -4 -77 -8 -85 -10 -8 -2 -49
-7 -90 -10 -41 -3 -86 -8 -100 -10 -14 -2 -47 -6 -75 -9 -171 -18 -254 -27
-285 -31 -19 -2 -62 -7 -95 -10 -33 -3 -76 -8 -95 -10 -19 -3 -60 -7 -90 -10
-30 -3 -71 -7 -90 -10 -19 -2 -66 -7 -105 -11 -38 -3 -77 -7 -86 -9 -9 -2 -52
-6 -95 -10 -43 -4 -103 -11 -131 -15 l-53 -7 -1 31 c0 41 0 4507 0 4569 1 52
1 51 51 37z m-137 -4641 c-5 -4 -44 -10 -88 -14 -44 -4 -91 -9 -105 -10 -14
-2 -56 -6 -95 -10 -38 -4 -76 -8 -85 -10 -8 -1 -53 -6 -100 -10 -47 -4 -87 -9
-90 -10 -3 -2 -43 -6 -90 -10 -47 -4 -87 -8 -90 -10 -3 -1 -43 -6 -90 -10 -47
-4 -92 -9 -101 -10 -8 -2 -49 -6 -90 -10 -41 -3 -85 -8 -99 -10 -14 -2 -52 -6
-85 -9 -101 -10 -158 -17 -195 -21 -19 -3 -61 -7 -92 -10 l-58 -6 1 1763 0
1763 101 80 c92 73 314 252 363 293 11 9 54 44 95 77 41 33 77 62 80 65 3 3
48 40 100 82 52 41 257 207 455 367 l360 292 3 -2302 c1 -1267 -1 -2306 -5
-2310z m2530 4007 c210 -106 568 -287 794 -402 l413 -209 0 -1158 0 -1158 -72
57 c-40 31 -98 75 -128 98 -30 22 -57 43 -60 46 -18 19 -232 180 -239 180 -5
0 -19 -13 -30 -28 l-20 -29 71 -54 c62 -46 281 -216 343 -265 11 -8 46 -34 77
-57 l57 -42 0 -501 1 -501 -52 8 c-29 5 -71 11 -93 14 -22 4 -53 9 -70 12 -16
3 -41 6 -55 8 -21 2 -247 36 -330 50 -14 2 -45 7 -70 10 -25 3 -70 10 -100 15
-51 8 -81 13 -170 26 -19 3 -60 9 -90 14 -30 5 -75 12 -100 15 -25 3 -70 10
-100 15 -30 5 -77 12 -105 15 -27 4 -57 8 -65 10 -8 2 -35 7 -60 11 -25 3 -65
9 -90 13 l-45 6 0 1988 c-1 1093 1 1987 3 1987 1 0 175 -87 385 -194z m1530
-773 c127 -65 235 -122 239 -127 3 -5 6 -729 6 -1609 l0 -1598 -46 6 c-26 3
-90 13 -142 21 -52 8 -124 19 -160 24 -36 6 -74 12 -85 14 -11 3 -28 5 -37 5
-17 1 -18 88 -18 1691 0 930 2 1690 5 1690 3 0 110 -53 238 -117z m505 -257
c333 -167 727 -368 739 -378 9 -7 12 -340 12 -1429 l-1 -1419 -26 0 c-15 0
-64 7 -110 15 -46 8 -104 17 -130 20 -26 3 -56 7 -67 9 -27 5 -91 15 -140 22
-22 3 -65 9 -95 14 -30 5 -75 12 -100 15 -25 3 -72 11 -105 16 -33 6 -78 13
-100 16 -22 2 -44 8 -49 13 -5 5 -9 389 -9 880 l1 872 50 51 c28 29 93 96 144
150 l94 99 219 1 219 2 2 30 c1 17 0 35 -2 40 -3 6 -70 9 -179 8 -96 -1 -175
0 -175 3 0 3 15 20 33 38 134 135 237 245 237 253 0 5 -11 20 -25 33 l-26 24
-22 -26 c-19 -22 -307 -322 -499 -521 l-68 -69 -1 33 c-1 45 -1 1218 0 1247 1
12 3 22 6 22 3 0 81 -38 173 -84z"/>
<path d="M2206 958 c-73 -15 -140 -76 -161 -146 -11 -38 -8 -274 4 -319 12
-44 68 -108 111 -126 48 -20 150 -17 195 5 49 25 91 70 105 113 13 38 19 170
9 187 -7 11 -192 14 -210 2 -5 -3 -8 -19 -6 -37 3 -34 -2 -33 103 -36 l31 -1
-8 -52 c-14 -90 -93 -138 -172 -105 -61 26 -72 54 -75 197 -4 146 7 187 60
220 69 42 149 15 179 -60 8 -21 16 -25 54 -26 50 0 54 7 31 59 -16 37 -51 78
-86 100 -35 22 -118 35 -164 25z"/>
<path d="M3847 959 c-120 -18 -187 -134 -142 -243 22 -51 75 -83 165 -97 100
-15 127 -30 136 -75 12 -66 -37 -113 -116 -109 -78 3 -89 6 -123 30 l-37 24
-30 -32 c-28 -30 -29 -33 -12 -45 98 -75 263 -82 351 -15 59 45 76 124 45 203
-21 53 -76 85 -172 99 -83 13 -119 32 -129 69 -23 92 95 146 200 92 l40 -21
30 29 29 30 -43 25 c-54 31 -128 45 -192 36z"/>
<path d="M4385 959 c-107 -14 -160 -66 -168 -163 -6 -62 23 -121 72 -145 41
-21 66 -28 136 -36 75 -9 100 -32 100 -90 0 -68 -31 -90 -125 -89 -56 0 -75 5
-108 26 l-40 27 -28 -30 -28 -29 20 -20 c51 -52 195 -75 282 -46 50 17 101 62
118 106 14 34 9 102 -10 138 -29 56 -59 70 -217 101 -74 15 -97 50 -75 119 18
54 109 69 193 32 l46 -20 25 25 c28 29 22 43 -31 69 -51 23 -107 32 -162 25z"/>
<path d="M6873 959 c-109 -20 -169 -95 -156 -196 12 -93 63 -129 213 -148 68
-9 94 -33 98 -87 3 -39 -1 -49 -23 -66 -53 -42 -160 -38 -226 9 -26 18 -26 18
-54 -11 -33 -34 -27 -46 38 -80 50 -27 164 -37 224 -21 49 13 97 51 118 92 8
15 15 52 15 82 0 96 -60 153 -172 164 -58 5 -138 38 -139 56 0 7 -2 21 -4 32
-7 36 30 83 69 91 50 9 125 -2 147 -22 17 -15 20 -15 48 6 38 26 38 33 4 58
-48 34 -137 52 -200 41z"/>
<path d="M100 916 l0 -41 83 0 82 -1 0 -259 1 -260 44 0 45 0 2 210 c0 116 2
233 2 261 l1 51 76 -2 c42 -1 78 3 81 9 11 17 9 56 -2 66 -5 4 -101 8 -212 8
l-203 -1 0 -41z"/>
<path d="M662 656 l3 -301 40 0 40 0 5 130 5 130 105 2 c58 1 112 -1 121 -3
14 -4 16 -22 15 -125 -1 -73 2 -123 9 -128 8 -6 48 -8 77 -2 4 0 6 135 5 299
l-2 297 -33 3 c-53 5 -57 -4 -56 -137 l0 -121 -123 0 -123 0 0 130 0 130 -45
-2 -45 -1 2 -301z"/>
<path d="M1280 921 c-1 -45 -1 -484 0 -531 l0 -35 188 1 c103 1 189 2 192 3 3
0 6 18 5 39 l0 37 -135 2 c-74 1 -141 2 -148 2 -10 1 -12 23 -10 89 l3 87 100
2 c55 1 110 2 123 2 19 1 22 6 22 41 l0 40 -125 0 -126 0 3 87 3 88 135 0 c74
0 140 3 146 7 7 4 11 22 9 40 l-2 33 -192 1 -191 2 0 -37z"/>
<path d="M2646 951 c-7 -11 -5 -591 2 -592 41 -7 365 -2 370 6 4 5 7 24 7 42
l0 31 -115 0 c-63 0 -129 1 -146 1 l-30 1 1 243 c0 133 -1 250 -3 259 -3 12
-14 17 -43 16 -22 0 -41 -3 -43 -7z"/>
<path d="M3305 943 c-3 -10 -52 -142 -107 -293 -55 -151 -103 -280 -105 -286
-4 -11 81 -13 92 -2 3 3 13 29 24 59 l18 54 109 1 c60 0 114 -1 120 -3 7 -3
21 -30 33 -62 21 -59 21 -59 61 -57 21 1 42 4 45 7 5 6 -13 60 -133 384 l-77
210 -37 2 c-27 2 -38 -1 -43 -14z m94 -267 c23 -66 41 -120 41 -121 0 -1 -39
-1 -87 -1 -75 1 -88 3 -87 17 2 32 79 238 86 231 4 -4 25 -61 47 -126z"/>
<path d="M5019 951 c-1 -8 -1 -528 0 -568 1 -32 2 -32 44 -30 l42 3 3 130 3
131 119 0 120 1 1 -27 c1 -14 2 -72 2 -128 0 -66 4 -103 11 -106 10 -3 61 -2
76 2 3 0 5 135 5 299 l0 297 -30 2 c-62 3 -62 4 -61 -130 l1 -122 -123 -3
-122 -3 0 129 0 129 -45 0 c-25 0 -45 -3 -46 -6z"/>
<path d="M5629 952 c0 -4 0 -108 0 -230 0 -221 0 -224 26 -267 43 -75 117
-111 209 -102 86 8 144 47 177 121 16 36 19 68 19 262 l0 221 -45 1 c-37 2
-45 -1 -46 -15 0 -10 0 -101 0 -203 0 -102 -4 -202 -10 -222 -19 -74 -102
-107 -175 -69 -23 12 -47 34 -53 47 -7 16 -11 102 -11 242 l0 217 -45 2 c-25
1 -45 -1 -46 -5z"/>
<path d="M6190 916 l0 -43 76 2 c59 1 77 -2 83 -14 3 -9 6 -125 5 -258 0 -134
2 -244 5 -244 16 -4 67 -5 76 -2 7 2 10 95 10 258 0 164 3 256 10 258 5 2 43
3 83 2 l72 -1 0 41 0 42 -210 1 -210 0 0 -42z"/>
</g>
</svg>
